# File created by Blade
# Date/Time:  Wed Jan 21 15:23:43 2015
# Frame Rate: 120.000 fps
#------------------------------------------------------
:FULLY-SPECIFIED
:DEGREES
1605
root 21.436025 35.647752 -20.793676 -174.927340 -0.275334 -177.117654
Spine -13.892034 0.936888 4.030014
Head 10.200605 -0.040253 -1.758847
LeftShoulder -14.179811 -34.536547 19.548377
LeftArm 1.490745 2.389520 -3.800440
LeftForeArm 11.735933 -0.000000 -2.315066
LeftHand -7.570606 -0.000000 -4.232125
LeftHandThumb1 -26.253704 0.000000 33.147579
RightShoulder -10.983509 -4.385078 -12.287561
RightArm 6.199011 32.661591 8.034773
RightForeArm -37.512879 -0.000000 4.837558
RightHand -4.102784 -0.000000 8.537388
RightHandThumb1 -24.326973 -0.000000 -32.862282
LeftUpLeg 1.633489 9.585356 5.938932
LeftLeg -5.377265 -0.000000 0.000000
LeftFoot -18.956257 25.741685 -13.367171
LeftToeBase 27.386993 -0.000000 -0.000000
RightUpLeg 0.064191 -3.150327 4.564847
RightLeg -2.336105 -0.000000 0.000000
RightFoot -20.388742 -27.039427 15.292144
RightToeBase 22.769620 -0.000000 -0.000000
1606
root 21.389504 35.650503 -20.782192 -174.840860 -0.234628 -177.139644
Spine -13.932746 0.941321 4.052449
Head 10.128231 0.004919 -1.846096
LeftShoulder -14.138617 -34.561715 19.558951
LeftArm 1.416365 2.317783 -3.896310
LeftForeArm 11.658552 -0.000000 -2.490913
LeftHand -7.558636 -0.000000 -4.353528
LeftHandThumb1 -26.253704 0.000000 33.147579
RightShoulder -10.971604 -4.276361 -12.350390
RightArm 6.198984 32.869031 8.121873
RightForeArm -37.658106 -0.000000 4.684024
RightHand -3.965190 -0.000000 8.545642
RightHandThumb1 -24.326973 -0.000000 -32.862282
LeftUpLeg 1.521225 9.604471 5.834153
LeftLeg -5.339072 -0.000000 0.000000
LeftFoot -18.980459 25.712566 -13.377252
LeftToeBase 27.355619 -0.000000 -0.000000
RightUpLeg -0.055187 -3.310249 4.489817
RightLeg -2.320692 -0.000000 0.000000
RightFoot -20.319284 -26.918714 15.213066
RightToeBase 22.781539 -0.000000 -0.000000
1607
root 21.346454 35.652750 -20.772968 -174.793511 -0.179034 -177.160179
Spine -13.918748 0.908972 4.069195
Head 10.010935 0.049608 -1.888080
LeftShoulder -14.164073 -34.607332 19.634970
LeftArm 1.308231 2.196015 -4.009987
LeftForeArm 11.764765 0.000000 -2.576129
LeftHand -7.623901 -0.000000 -4.480967
LeftHandThumb1 -26.253704 0.000000 33.147579
RightShoulder -10.883528 -4.173683 -12.396232
RightArm 6.164594 33.237625 8.222986
RightForeArm -37.841294 0.000000 4.582742
RightHand -4.172540 0.000000 8.680211
RightHandThumb1 -24.326973 -0.000000 -32.862282
LeftUpLeg 1.442733 9.598093 5.744613
LeftLeg -5.272440 -0.000000 0.000000
LeftFoot -19.033578 25.698310 -13.383630
LeftToeBase 27.399353 -0.000000 -0.000000
RightUpLeg -0.133701 -3.492963 4.420082
RightLeg -2.309803 -0.000000 0.000000
RightFoot -20.242143 -26.794881 15.113579
RightToeBase 23.158469 -0.000000 -0.000000
1608
root 21.300225 35.654798 -20.766178 -174.781290 -0.109664 -177.188026
Spine -13.866548 0.921628 4.088327
Head 9.911050 0.042693 -2.003764
LeftShoulder -14.123871 -34.650507 19.632315
LeftArm 1.222179 2.144283 -4.088683
LeftForeArm 11.757060 -0.000000 -2.690136
LeftHand -7.729576 -0.000000 -4.696725
LeftHandThumb1 -26.253704 0.000000 33.147579
RightShoulder -10.814007 -4.011223 -12.466489
RightArm 6.082773 33.495750 8.294094
RightForeArm -37.939512 -0.000000 4.438644
RightHand -4.227777 0.000000 8.692367
RightHandThumb1 -24.326973 -0.000000 -32.862282
LeftUpLeg 1.419032 9.613208 5.644229
LeftLeg -5.236213 -0.000000 0.000000
LeftFoot -19.066966 25.686966 -13.381198
LeftToeBase 27.365232 -0.000000 -0.000000
RightUpLeg -0.183539 -3.752525 4.331980
RightLeg -2.282989 -0.000000 0.000000
RightFoot -20.151055 -26.575430 15.027396
RightToeBase 22.882374 -0.000000 -0.000000
1609
root 21.254425 35.656491 -20.755112 -174.727444 -0.026610 -177.229138
Spine -13.848324 0.992753 4.064315
Head 9.770863 -0.049935 -2.065009
LeftShoulder -14.077490 -34.721978 19.647455
LeftArm 1.170408 2.121643 -4.202948
LeftForeArm 11.725311 -0.000000 -2.782175
LeftHand -7.733081 -0.000000 -4.924153
LeftHandThumb1 -26.253704 0.000000 33.147579
RightShoulder -10.808186 -3.829844 -12.526557
RightArm 5.996709 33.698989 8.362986
RightForeArm -37.858972 -0.000000 4.376102
RightHand -4.414247 -0.000000 8.850840
RightHandThumb1 -24.326973 -0.000000 -32.862282
LeftUpLeg 1.340958 9.655570 5.514651
LeftLeg -5.189100 -0.000000 0.000000
LeftFoot -19.091818 25.700445 -13.362138
LeftToeBase 27.341819 -0.000000 -0.000000
RightUpLeg -0.277534 -3.881282 4.228046
RightLeg -2.261490 -0.000000 0.000000
RightFoot -20.070725 -26.467315 14.905394
RightToeBase 22.927505 -0.000000 -0.000000
1610
root 21.210633 35.657646 -20.752418 -174.757431 0.081936 -177.254277
Spine -13.753952 1.037172 4.062506
Head 9.674891 -0.027212 -2.143526
LeftShoulder -14.046325 -34.718092 19.638865
LeftArm 1.114847 2.030745 -4.272785
LeftForeArm 11.726489 -0.000000 -2.832608
LeftHand -7.799404 -0.000000 -5.160857
LeftHandThumb1 -26.253704 0.000000 33.147579
RightShoulder -10.744700 -3.719041 -12.544066
RightArm 5.952470 34.075543 8.412829
RightForeArm -37.870688 0.000000 4.263326
RightHand -4.486216 0.000000 8.985597
RightHandThumb1 -24.326973 -0.000000 -32.862282
LeftUpLeg 1.364376 9.733512 5.419508
LeftLeg -5.136424 -0.000000 0.000000
LeftFoot -19.145776 25.688632 -13.342331
LeftToeBase 27.377225 -0.000000 -0.000000
RightUpLeg -0.275764 -4.027231 4.133863
RightLeg -2.239306 -0.000000 0.000000
RightFoot -20.006126 -26.274006 14.915846
RightToeBase 22.744553 -0.000000 -0.000000
1611
root 21.166257 35.659283 -20.753578 -174.801435 0.159757 -177.293335
Spine -13.653219 1.072701 4.045807
Head 9.595093 -0.043525 -2.181567
LeftShoulder -14.010453 -34.791708 19.631390
LeftArm 1.069997 2.033705 -4.346135
LeftForeArm 11.710724 0.000000 -2.865457
LeftHand -7.854804 0.000000 -5.393348
LeftHandThumb1 -26.253704 0.000000 33.147579
RightShoulder -10.701948 -3.583098 -12.581576
RightArm 5.882111 34.429415 8.462737
RightForeArm -37.752245 -0.000000 4.109476
RightHand -4.499838 -0.000000 9.169102
RightHandThumb1 -24.326973 -0.000000 -32.862282
LeftUpLeg 1.430648 9.733840 5.312503
LeftLeg -5.142747 -0.000000 0.000000
LeftFoot -19.156624 25.735946 -13.334172
LeftToeBase 27.254020 -0.000000 -0.000000
RightUpLeg -0.266993 -4.221108 4.025331
RightLeg -2.185016 -0.000000 0.000000
RightFoot -19.968827 -26.093264 14.803235
RightToeBase 22.918267 -0.000000 -0.000000
1612
root 21.125038 35.660669 -20.756382 -174.898960 0.206618 -177.295649
Spine -13.488800 1.064339 4.081954
Head 9.523054 0.008354 -2.262413
LeftShoulder -13.988590 -34.812769 19.590351
LeftArm 1.052584 1.902943 -4.404512
LeftForeArm 11.746514 0.000000 -2.892661
LeftHand -7.902452 -0.000000 -5.517490
LeftHandThumb1 -26.253704 0.000000 33.147579
RightShoulder -10.648960 -3.459633 -12.627000
RightArm 5.845578 34.766977 8.547596
RightForeArm -37.723250 0.000000 4.018649
RightHand -4.699161 -0.000000 9.249091
RightHandThumb1 -24.326973 -0.000000 -32.862282
LeftUpLeg 1.547983 9.695728 5.256504
LeftLeg -5.149266 -0.000000 0.000000
LeftFoot -19.200764 25.810823 -13.307179
LeftToeBase 27.285776 -0.000000 -0.000000
RightUpLeg -0.186262 -4.386713 3.949564
RightLeg -2.160831 -0.000000 0.000000
RightFoot -19.907092 -25.923893 14.790108
RightToeBase 22.912433 -0.000000 -0.000000
1613
root 21.085101 35.662454 -20.756758 -174.948340 0.280658 -177.305614
Spine -13.383063 1.108847 4.081772
Head 9.451826 -0.037313 -2.278652
LeftShoulder -13.906607 -34.904996 19.559670
LeftArm 0.953705 1.865082 -4.446449
LeftForeArm 11.737498 -0.000000 -2.826323
LeftHand -7.976128 -0.000000 -5.739570
LeftHandThumb1 -26.253704 0.000000 33.147579
RightShoulder -10.632351 -3.373413 -12.639937
RightArm 5.797937 35.022137 8.603512
RightForeArm -37.779698 -0.000000 3.943232
RightHand -4.827433 0.000000 9.342324
RightHandThumb1 -24.326973 -0.000000 -32.862282
LeftUpLeg 1.620049 9.682074 5.182041
LeftLeg -5.162165 -0.000000 0.000000
LeftFoot -19.227309 25.889813 -13.289357
LeftToeBase 27.236130 -0.000000 -0.000000
RightUpLeg -0.154077 -4.457983 3.870301
RightLeg -2.147187 -0.000000 0.000000
RightFoot -19.852156 -25.809767 14.835226
RightToeBase 22.896025 -0.000000 -0.000000
1614
root 21.044157 35.662102 -20.757080 -174.976979 0.337986 -177.344664
Spine -13.316189 1.132219 4.050333
Head 9.410155 -0.045794 -2.321674
LeftShoulder -13.839171 -34.846410 19.506304
LeftArm 0.946066 1.733889 -4.508213
LeftForeArm 11.679866 -0.000000 -2.817623
LeftHand -7.931812 -0.000000 -5.881444
LeftHandThumb1 -26.253704 0.000000 33.147579
RightShoulder -10.624762 -3.347159 -12.674654
RightArm 5.808179 35.336231 8.722746
RightForeArm -37.746764 -0.000000 3.853586
RightHand -4.953031 -0.000000 9.439532
RightHandThumb1 -24.326973 -0.000000 -32.862282
LeftUpLeg 1.669043 9.618938 5.074298
LeftLeg -5.176618 -0.000000 0.000000
LeftFoot -19.242948 25.997978 -13.249838
LeftToeBase 27.176365 -0.000000 -0.000000
RightUpLeg -0.148603 -4.546489 3.763478
RightLeg -2.122102 -0.000000 0.000000
RightFoot -19.819459 -25.726020 14.787983
RightToeBase 22.885476 -0.000000 -0.000000
